<svg width="110" height="30" viewBox="0 0 110 30" fill="none" xmlns="http://www.w3.org/2000/svg">
<path d="M0.72 29V0.999998H5.84V25H18.24V29H0.72ZM33.3322 29.48C30.5322 29.48 28.0789 28.8667 25.9722 27.64C23.8922 26.4133 22.2522 24.72 21.0522 22.56C19.8789 20.3733 19.2922 17.8533 19.2922 15C19.2922 12.1467 19.8789 9.64 21.0522 7.48C22.2522 5.29333 23.8922 3.58667 25.9722 2.36C28.0789 1.13333 30.5322 0.52 33.3322 0.52C36.1055 0.52 38.5455 1.13333 40.6522 2.36C42.7589 3.58667 44.3989 5.29333 45.5722 7.48C46.7455 9.64 47.3322 12.1467 47.3322 15C47.3322 17.8533 46.7455 20.3733 45.5722 22.56C44.3989 24.72 42.7589 26.4133 40.6522 27.64C38.5455 28.8667 36.1055 29.48 33.3322 29.48ZM33.3322 24.88C35.9989 24.88 38.1189 24 39.6922 22.24C41.2922 20.48 42.0922 18.0667 42.0922 15C42.0922 11.9333 41.2922 9.52 39.6922 7.76C38.1189 6 35.9989 5.12 33.3322 5.12C30.6655 5.12 28.5322 6 26.9322 7.76C25.3322 9.52 24.5322 11.9333 24.5322 15C24.5322 18.0667 25.3322 20.48 26.9322 22.24C28.5322 24 30.6655 24.88 33.3322 24.88ZM64.0928 29.48C61.4528 29.48 59.1461 28.88 57.1728 27.68C55.1995 26.48 53.6661 24.8133 52.5728 22.68C51.4795 20.52 50.9328 18.0133 50.9328 15.16C50.9328 12.28 51.4928 9.74667 52.6128 7.56C53.7595 5.34667 55.3728 3.62667 57.4528 2.4C59.5595 1.14667 62.0528 0.52 64.9328 0.52C68.2128 0.52 70.9328 1.30667 73.0928 2.88C75.2528 4.45333 76.6528 6.62667 77.2928 9.4H71.5728C71.1461 8.09333 70.3728 7.08 69.2528 6.36C68.1328 5.61333 66.6928 5.24 64.9328 5.24C62.1328 5.24 59.9728 6.13333 58.4528 7.92C56.9328 9.68 56.1728 12.1067 56.1728 15.2C56.1728 18.2933 56.9195 20.6933 58.4128 22.4C59.9328 24.08 61.9861 24.92 64.5728 24.92C67.1061 24.92 69.0128 24.24 70.2928 22.88C71.5995 21.4933 72.3861 19.68 72.6528 17.44H65.5728V13.6H77.8128V29H73.0928L72.6928 25.32C71.7861 26.6533 70.6528 27.68 69.2928 28.4C67.9328 29.12 66.1995 29.48 64.0928 29.48ZM95.9103 29.48C93.1103 29.48 90.657 28.8667 88.5503 27.64C86.4703 26.4133 84.8303 24.72 83.6303 22.56C82.457 20.3733 81.8703 17.8533 81.8703 15C81.8703 12.1467 82.457 9.64 83.6303 7.48C84.8303 5.29333 86.4703 3.58667 88.5503 2.36C90.657 1.13333 93.1103 0.52 95.9103 0.52C98.6836 0.52 101.124 1.13333 103.23 2.36C105.337 3.58667 106.977 5.29333 108.15 7.48C109.324 9.64 109.91 12.1467 109.91 15C109.91 17.8533 109.324 20.3733 108.15 22.56C106.977 24.72 105.337 26.4133 103.23 27.64C101.124 28.8667 98.6836 29.48 95.9103 29.48ZM95.9103 24.88C98.577 24.88 100.697 24 102.27 22.24C103.87 20.48 104.67 18.0667 104.67 15C104.67 11.9333 103.87 9.52 102.27 7.76C100.697 6 98.577 5.12 95.9103 5.12C93.2436 5.12 91.1103 6 89.5103 7.76C87.9103 9.52 87.1103 11.9333 87.1103 15C87.1103 18.0667 87.9103 20.48 89.5103 22.24C91.1103 24 93.2436 24.88 95.9103 24.88Z" fill="#333333"/>
</svg>
